<svg width="123" height="32" viewBox="0 0 123 32" fill="none" xmlns="http://www.w3.org/2000/svg">
<g clip-path="url(#clip0_165_2898)">
<path fill-rule="evenodd" clip-rule="evenodd" d="M59.8967 0L54.7497 2.194V16.264C54.9337 21.642 59.3317 25.897 64.6727 25.864V20.736C64.0482 20.7398 63.4292 20.6199 62.8513 20.3832C62.2734 20.1465 61.7481 19.7977 61.3057 19.357C60.4078 18.4628 59.8996 17.2501 59.8917 15.983V11.149H64.6727V6.034H59.8967V0ZM42.8167 6.034C37.4207 6.106 33.0987 10.559 33.1467 15.996C33.1947 21.433 37.5947 25.808 42.9907 25.784C48.3867 25.759 52.7477 21.344 52.7467 15.907C52.7097 10.418 48.2637 5.998 42.8167 6.034ZM42.8167 20.663C40.2187 20.628 38.1367 18.485 38.1597 15.867C38.1817 13.25 40.2997 11.143 42.8967 11.153C45.4947 11.163 47.5957 13.286 47.5977 15.903C47.5916 17.1716 47.084 18.3863 46.1857 19.282C45.743 19.7233 45.2172 20.0724 44.6388 20.3093C44.0604 20.5462 43.4407 20.6661 42.8157 20.662L42.8167 20.663ZM75.8517 6.033C70.4567 6.107 66.1347 10.561 66.1837 15.997C66.2317 21.434 70.6327 25.808 76.0277 25.784C81.4237 25.759 85.7847 21.344 85.7837 15.907C85.7467 10.417 81.2997 5.996 75.8517 6.033ZM75.8517 20.663C73.2537 20.63 71.1707 18.487 71.1917 15.87C71.2117 13.252 73.3297 11.143 75.9277 11.153C78.5257 11.163 80.6277 13.286 80.6297 15.903C80.6137 18.547 78.4747 20.677 75.8517 20.663ZM10.4017 6.033C4.95368 5.999 0.50968 10.419 0.47168 15.908C0.47168 16.038 0.47168 16.168 0.48168 16.297H0.47168V29.807L5.61968 32V24.563C7.0854 25.3652 8.72978 25.7848 10.4007 25.783C12.1401 25.8044 13.8537 25.3617 15.3651 24.5006C16.8765 23.6395 18.1311 22.3911 18.9997 20.884C19.8743 19.3715 20.3349 17.6552 20.3349 15.908C20.3349 14.1608 19.8743 12.4445 18.9997 10.932C18.1311 9.42519 16.8766 8.17709 15.3654 7.3162C13.8541 6.4553 12.1408 6.01171 10.4017 6.033ZM10.4017 20.663C7.80468 20.628 5.72368 18.485 5.74568 15.867C5.76768 13.25 7.88568 11.143 10.4827 11.153C13.0797 11.163 15.1817 13.286 15.1827 15.903C15.1761 17.1712 14.6686 18.3854 13.7707 19.281C13.3282 19.7224 12.8026 20.0718 12.2244 20.309C11.6462 20.5462 11.0267 20.6665 10.4017 20.663ZM22.2017 15.627V25.847H27.3507V15.904C27.3583 14.6365 27.8666 13.4234 28.7647 12.529C29.2071 12.0883 29.7324 11.7395 30.3103 11.5028C30.8882 11.2661 31.5072 11.1462 32.1317 11.15V6.034C26.7887 5.997 22.3857 10.252 22.2017 15.634V15.627ZM112.541 6.027C107.145 6.099 102.823 10.552 102.871 15.989C102.919 21.426 107.319 25.801 112.715 25.776C118.111 25.752 122.472 21.337 122.471 15.9C122.431 10.413 117.986 5.997 112.541 6.034V6.027ZM112.541 20.655C109.943 20.621 107.861 18.477 107.884 15.859C107.907 13.241 110.026 11.134 112.624 11.146C115.222 11.156 117.322 13.282 117.322 15.9C117.316 17.1686 116.81 18.3837 115.912 19.28C115.469 19.7219 114.943 20.0717 114.365 20.3091C113.786 20.5465 113.166 20.6668 112.541 20.663V20.655ZM95.4437 25.783H100.593V6.033H95.4427L95.4437 25.783ZM89.9477 19.141C88.1337 19.165 86.6807 20.661 86.6957 22.489C86.7117 24.317 88.1907 25.789 90.0057 25.781C91.8187 25.773 93.2857 24.289 93.2857 22.461C93.2727 20.616 91.7787 19.13 89.9477 19.141Z" fill="white"/>
</g>
<defs>
<clipPath id="clip0_165_2898">
<rect width="123" height="32" fill="white"/>
</clipPath>
</defs>
</svg>
