<svg width="512" height="512" viewBox="0 0 512 512" fill="none" xmlns="http://www.w3.org/2000/svg">
<path d="M294.065 462.55C274.665 468.289 255.209 470.165 234.784 466.595C233.845 466.433 232.997 465.937 232.394 465.199C231.791 464.461 231.475 463.531 231.503 462.578C231.596 459.576 232.029 457.337 231.698 453.558C231.07 446.273 229.627 447.549 228.263 444.667C225.941 439.631 232.913 434.707 232.364 429.228C232.015 425.528 228.138 422.391 228.98 418.802C229.986 414.175 236.111 414.534 234.324 399.812C234.161 398.462 235.245 397.312 236.651 397.252C258.425 393.877 276.601 394.31 295.847 396.456C296.165 396.454 296.479 396.518 296.77 396.645C297.061 396.772 297.322 396.959 297.536 397.193C297.75 397.427 297.913 397.704 298.013 398.005C298.113 398.306 298.15 398.625 298.119 398.941C297.155 409.474 296.29 412.612 298.352 415.2C298.864 415.926 299.594 416.475 299.99 417.331C301.698 420.873 295.568 424.904 297.477 428.344C298.333 429.833 300.488 430.811 300.139 432.505C300.009 433.203 299.357 433.739 298.873 434.246C295.475 437.634 295.726 443.024 296.178 447.739C296.56 451.617 296.574 454.81 296.871 458.417C296.92 459.318 296.672 460.21 296.165 460.957C295.658 461.704 294.92 462.263 294.065 462.55Z" fill="#FFC502"/>
<path d="M234.384 468.885C232.885 468.629 231.53 467.836 230.573 466.654C229.616 465.472 229.123 463.981 229.185 462.462C229.278 459.357 229.697 457.365 229.385 453.758C229.204 451.724 229.059 449.974 228.278 448.684C227.877 448.102 226.797 447.018 226.16 445.668C224.391 441.833 226.299 438.37 227.984 435.312C230.805 430.201 230.54 429.4 228.538 425.747C227.365 423.596 226.039 421.157 226.723 418.267C227.128 416.358 228.282 414.971 229.302 413.752C229.599 413.389 229.907 413.021 230.186 412.644C232.723 409.209 232.532 404.373 232.015 400.095C231.685 397.377 233.802 395.045 236.549 394.929C268.111 389.995 294.47 394.068 296.108 394.138C298.994 394.417 300.735 396.772 300.428 399.225C299.459 410.475 298.589 412.044 300.721 414.413C303.667 417.634 302.885 420.203 300.707 423.983C298.859 427.194 299.283 427.078 300.358 428.148C301.307 429.079 302.895 430.653 302.415 432.98C302.192 434.209 301.345 435.056 300.786 435.619C297.007 439.389 298.482 445.235 298.91 453.669C298.989 455.168 299.059 456.657 299.19 458.221C299.315 461.261 297.491 463.909 294.768 464.77L294.721 464.784C274.655 470.719 254.832 472.464 234.384 468.885ZM237.005 399.551C237.321 406.402 237.228 411.532 232.876 416.731C232.108 417.662 231.438 418.458 231.256 419.291C230.977 420.492 231.736 421.893 232.625 423.512C235.478 428.744 235.585 431.16 232.062 437.555C230.535 440.334 229.655 442.131 230.372 443.699C230.558 444.072 230.917 444.523 231.303 444.998C233.37 447.567 233.7 449.648 234.003 453.176C234.375 457.425 233.923 459.622 233.835 462.653C233.829 463.044 233.962 463.426 234.211 463.728C234.46 464.031 234.808 464.235 235.194 464.305C254.101 467.61 273.138 466.306 293.376 460.33C293.741 460.194 294.053 459.943 294.263 459.615C294.473 459.287 294.57 458.899 294.54 458.51C294.242 454.763 294.232 451.742 293.86 447.963C293.348 442.666 293.148 436.671 297.23 432.598L297.709 432.105C297.188 431.486 296.136 430.685 295.461 429.508C293.841 426.584 295.48 423.741 296.671 421.665C298.445 418.583 298.133 418.486 297.276 417.541C293.264 413.086 295.028 409.535 295.801 398.713C293.125 398.667 268.553 394.664 237.005 399.551Z" fill="#FFC502"/>
<path d="M190.902 339.107C178.465 327.289 164.525 318.385 156.412 303.518C124.086 244.285 159.279 167.615 226.788 144.426C257.057 134.032 291.626 134.153 321.066 146.977C347.164 158.348 371.94 181.35 382.646 205.773C398.108 241.026 388.939 282.219 364.772 312.427C354.686 325.027 342.133 335.821 331.828 348.262C320.526 361.9 316.365 376.45 310.147 392.169C306.386 401.687 304.049 397.754 293.19 397.13C262.163 395.362 255.591 398.071 232.234 398.266C227.417 398.308 223.069 394.84 222.567 390.051C222.242 387.336 221.636 384.663 220.761 382.073C215.343 365.34 203.604 351.172 190.902 339.107Z" fill="white"/>
<path d="M293.06 399.453C261.618 397.684 256.07 400.393 232.253 400.598H232.146C226.081 400.598 220.859 396.093 220.253 390.302C219.947 387.746 219.375 385.228 218.545 382.79C215.045 371.973 208.58 361.412 198.773 350.487C181.309 331.027 164.283 322.811 154.368 304.631C120.763 243.046 158.409 165.451 226.034 142.229C257.993 131.249 292.967 132.198 321.997 144.845C349.389 156.784 374.035 180.326 384.778 204.837C399.858 239.225 392.886 281.004 366.588 313.884C356.366 326.661 343.836 337.413 333.615 349.752C322.63 363.008 318.525 377.307 312.311 393.025C307.861 404.289 303.649 400.068 293.06 399.453ZM293.325 394.808C305.003 395.478 305.008 398.848 307.987 391.317C314.271 375.408 318.46 360.741 330.036 346.778C340.345 334.336 353.057 323.347 362.952 310.975C388.171 279.454 394.897 239.504 380.514 206.713C370.214 183.212 346.513 160.605 320.135 149.108C292.18 136.927 258.416 136.025 227.542 146.628C162.802 168.872 126.213 243.326 158.45 302.406C167.629 319.213 185.042 328.22 202.24 347.383C212.48 358.796 219.271 369.906 222.976 381.356C223.986 384.498 224.615 387.258 224.88 389.814C225.243 393.258 228.427 395.944 232.146 395.944H232.216C244.383 395.837 256.624 394.631 269.033 394.268C277.253 394.031 285.115 394.338 293.325 394.808ZM298.534 416.787C275.098 413.249 255.879 412.751 232.202 415.097C231.55 415.19 230.991 414.678 230.931 414.05C230.901 413.743 230.994 413.437 231.19 413.199C231.385 412.961 231.667 412.81 231.974 412.779C255.851 410.424 275.228 410.917 298.878 414.487C299.034 414.504 299.186 414.552 299.323 414.628C299.46 414.705 299.581 414.808 299.677 414.932C299.773 415.057 299.843 415.199 299.883 415.351C299.922 415.503 299.931 415.662 299.907 415.817C299.884 415.972 299.83 416.121 299.747 416.255C299.665 416.389 299.556 416.505 299.428 416.595C299.299 416.686 299.154 416.75 299 416.782C298.847 416.815 298.688 416.817 298.534 416.787ZM253.859 434.795C246.486 434.451 239.095 434.032 231.908 433.548C231.266 433.501 230.777 432.952 230.824 432.31C230.87 431.667 231.452 431.137 232.062 431.23C239.239 431.709 246.612 432.128 253.98 432.468C297.7 435.028 300.782 429.475 301.224 432.561C301.246 432.713 301.237 432.867 301.199 433.015C301.161 433.164 301.094 433.303 301.002 433.425C300.91 433.548 300.794 433.651 300.662 433.728C300.53 433.806 300.384 433.857 300.233 433.878C284.677 436.108 269.708 435.721 253.859 434.795ZM251.472 454.028L231.457 452.873C230.028 452.794 229.912 450.625 231.597 450.546C252.472 451.51 273.767 454.023 296.36 450.858C297.933 450.686 298.175 452.952 296.681 453.167C288.619 454.298 266.738 454.898 251.472 454.028Z" fill="black"/>
<path d="M304.417 367.649C304.12 367.579 303.839 367.452 303.592 367.274C303.344 367.096 303.133 366.87 302.973 366.611C302.812 366.352 302.704 366.063 302.654 365.762C302.605 365.461 302.616 365.153 302.686 364.856C305.962 350.892 314.583 338.171 326.345 329.961C326.851 329.623 327.47 329.497 328.068 329.609C328.667 329.722 329.197 330.065 329.546 330.565C329.894 331.064 330.033 331.681 329.932 332.281C329.831 332.882 329.499 333.419 329.007 333.778C318.077 341.486 310.329 352.911 307.21 365.917C307.14 366.214 307.013 366.495 306.835 366.743C306.657 366.991 306.432 367.201 306.172 367.362C305.913 367.522 305.624 367.631 305.323 367.68C305.022 367.729 304.714 367.719 304.417 367.649Z" fill="black"/>
<path d="M273.469 320.712C272.133 317.049 272.664 322.49 270.909 214.737C270.741 204.437 270.625 193.829 274.353 184.227C276.401 178.967 281.135 175.784 286.353 173.633C291.57 171.483 297.589 171.325 302.913 173.191C311.361 176.147 313.898 181.942 314.322 190.701C314.331 190.984 314.415 191.259 314.566 191.498C314.716 191.737 314.928 191.931 315.178 192.062C315.429 192.192 315.71 192.253 315.992 192.239C316.274 192.225 316.548 192.136 316.784 191.981C322.602 188.132 330.496 187.21 337.12 189.379C351.591 194.118 357.972 212.247 347.667 225.201C347.481 225.425 347.359 225.696 347.316 225.984C347.272 226.272 347.309 226.567 347.421 226.836C347.533 227.105 347.717 227.338 347.952 227.51C348.188 227.682 348.466 227.787 348.756 227.812C351.465 228.091 354.328 229.139 356.171 230.572C362.943 235.832 366.42 245.015 364.828 253.44C363.399 261.027 357.921 267.683 350.846 270.708C349.831 271.141 349.64 272.482 350.408 273.268C353.657 276.615 356.115 282.005 356.832 286.222C357.688 291.249 356.967 296.439 355.612 301.359C354.84 304.17 353.769 307.065 351.539 308.945C348.211 311.752 343.208 311.505 339.13 309.983C335.905 308.783 332.973 306.911 329.882 305.399C328.788 304.863 327.48 305.631 327.517 306.851C327.587 309.271 327.466 311.72 326.842 314.019C324.888 321.261 318.911 324.371 312.721 322.374C310.95 321.784 309.313 320.851 307.903 319.628C306.986 318.85 305.52 319.139 305.194 320.298C302.69 329.169 290.528 335.192 280.102 328.639C276.932 326.647 274.646 323.952 273.469 320.712Z" fill="#FF5F6F"/>
<path d="M264.365 314.866L262.293 213.988C262.084 203.688 261.809 193.089 257.727 183.631C255.493 178.446 250.643 175.439 245.346 173.484C235.423 169.821 224.824 173.624 220.798 179.731C218.531 183.175 218.071 187.383 218.024 191.567C218.026 191.85 217.952 192.127 217.811 192.372C217.669 192.616 217.465 192.819 217.22 192.959C216.975 193.098 216.696 193.17 216.414 193.167C216.132 193.164 215.855 193.086 215.613 192.94C209.655 189.31 201.733 188.677 195.194 191.088C180.904 196.352 175.193 214.705 185.973 227.268C186.168 227.485 186.301 227.752 186.355 228.039C186.409 228.326 186.384 228.623 186.281 228.897C186.178 229.17 186.002 229.411 185.772 229.591C185.542 229.772 185.267 229.886 184.977 229.921C182.282 230.298 179.461 231.452 177.669 232.951C171.097 238.457 167.96 247.762 169.859 256.126C171.567 263.647 177.288 270.103 184.474 272.864C185.498 273.259 185.74 274.595 185 275.41C181.877 278.868 179.619 284.346 179.061 288.582C178.391 293.646 179.298 298.803 180.834 303.672C181.709 306.451 182.887 309.304 185.182 311.101C188.612 313.786 193.606 313.353 197.623 311.682C200.802 310.365 203.665 308.387 206.7 306.763C207.77 306.185 209.106 306.902 209.115 308.122C209.134 310.542 209.348 312.99 210.046 315.262C212.969 324.701 222.46 326.349 229.186 320.172C230.07 319.358 231.55 319.595 231.918 320.74C234.743 329.514 247.124 335.081 257.299 328.155C259.291 326.796 261.325 325.046 262.698 322.942C264.449 320.242 264.43 318.045 264.365 314.866Z" fill="#68BBFF"/>
<path d="M291.835 198.814C291.267 197.381 293.446 196.538 293.995 197.967C298.91 210.548 313.442 216.595 325.832 211.14C326.111 211.035 326.419 211.041 326.693 211.156C326.967 211.272 327.187 211.488 327.307 211.76C327.427 212.033 327.437 212.341 327.337 212.621C327.237 212.901 327.033 213.132 326.768 213.267C313.19 219.238 297.225 212.652 291.835 198.814ZM342.602 249.558H342.593C335.657 249.499 328.94 247.118 323.515 242.795C318.091 238.472 314.27 232.456 312.664 225.708C312.301 224.21 314.573 223.679 314.922 225.173C316.407 231.416 319.942 236.982 324.961 240.981C329.98 244.98 336.194 247.182 342.612 247.236C342.765 247.236 342.916 247.267 343.057 247.326C343.198 247.385 343.326 247.471 343.433 247.58C343.541 247.688 343.626 247.817 343.684 247.958C343.742 248.1 343.771 248.251 343.771 248.404C343.77 248.557 343.739 248.708 343.68 248.849C343.621 248.99 343.535 249.118 343.427 249.225C343.318 249.333 343.19 249.418 343.048 249.476C342.907 249.534 342.755 249.559 342.602 249.558ZM312.953 272.249H312.832C312.68 272.233 312.532 272.188 312.397 272.115C312.263 272.042 312.144 271.943 312.047 271.824C311.951 271.706 311.879 271.569 311.835 271.422C311.792 271.275 311.778 271.121 311.794 270.969C312.585 263.08 311.845 256.731 309.523 251.569C306.683 245.253 301.07 240.77 295.224 240.137C293.665 239.961 293.972 237.587 295.48 237.819C302.122 238.541 308.466 243.563 311.64 250.615C314.145 256.158 314.945 262.898 314.107 271.206C314.077 271.492 313.943 271.757 313.73 271.949C313.517 272.141 313.24 272.248 312.953 272.249ZM313.544 303.369L313.442 303.365C313.135 303.338 312.852 303.19 312.654 302.954C312.456 302.719 312.359 302.415 312.385 302.108C313.702 286.757 328.211 275.88 343.436 279.045C344.916 279.371 344.506 281.605 342.956 281.325C329.225 278.435 315.913 288.265 314.703 302.303C314.679 302.595 314.545 302.866 314.33 303.064C314.114 303.261 313.837 303.37 313.544 303.369ZM298.431 305.324H298.38C298.226 305.318 298.076 305.282 297.937 305.218C297.797 305.153 297.672 305.062 297.568 304.949C297.465 304.836 297.384 304.704 297.332 304.56C297.279 304.416 297.256 304.263 297.263 304.109C297.414 299.931 296.572 295.776 294.805 291.987C293.037 288.197 290.396 284.882 287.097 282.312C285.878 281.381 287.283 279.52 288.517 280.469C292.11 283.267 294.987 286.878 296.913 291.005C298.839 295.131 299.758 299.656 299.594 304.207C299.582 304.508 299.455 304.792 299.238 305C299.021 305.208 298.732 305.325 298.431 305.324ZM214.063 212.536C212.573 212.257 212.936 209.99 214.486 210.246C221.375 211.558 228.887 208.384 232.778 202.58C235.078 199.145 236.167 195.021 237.21 191.027C237.61 189.552 239.863 190.12 239.467 191.618C238.415 195.603 237.233 200.113 234.71 203.878C230.451 210.223 222.11 214.021 214.063 212.536ZM224.931 240.794C211.735 240.794 202.873 229.451 202.961 218.526C202.964 218.219 203.088 217.926 203.306 217.71C203.524 217.493 203.818 217.372 204.125 217.372H204.134C204.287 217.373 204.438 217.405 204.579 217.464C204.72 217.524 204.847 217.61 204.954 217.719C205.062 217.828 205.146 217.957 205.204 218.099C205.261 218.241 205.29 218.392 205.289 218.545C205.228 226.192 210.06 233.709 217.037 236.828C224.023 239.947 232.844 238.536 238.494 233.393C238.607 233.29 238.739 233.211 238.882 233.159C239.026 233.107 239.178 233.084 239.331 233.092C239.483 233.099 239.632 233.136 239.77 233.201C239.908 233.266 240.032 233.357 240.135 233.47C240.238 233.583 240.317 233.714 240.369 233.858C240.421 234.001 240.443 234.154 240.436 234.306C240.429 234.458 240.392 234.608 240.327 234.746C240.262 234.884 240.171 235.008 240.058 235.11C235.99 238.82 230.447 240.789 224.931 240.789V240.794ZM203.217 285.771C203.074 285.716 202.943 285.633 202.832 285.528C202.72 285.422 202.631 285.296 202.569 285.156C202.506 285.016 202.472 284.865 202.469 284.711C202.465 284.558 202.492 284.405 202.547 284.262C204.362 279.571 206.234 274.716 206.518 269.657C206.825 264.239 205.014 259.347 201.677 256.577C198.647 254.082 194.458 253.249 190.762 252.518C189.282 252.23 189.663 249.958 191.213 250.238C194.984 250.982 199.675 251.913 203.157 254.785C207.067 258.025 209.194 263.629 208.845 269.787C208.538 275.209 206.597 280.236 204.721 285.1C204.666 285.244 204.584 285.375 204.478 285.486C204.373 285.597 204.246 285.687 204.106 285.749C203.966 285.811 203.815 285.845 203.662 285.849C203.508 285.853 203.36 285.826 203.217 285.771ZM219.201 262.642C218.354 261.362 220.304 260.068 221.147 261.367C223.851 265.514 228.696 268.065 233.742 268.032C236.228 267.958 238.657 267.267 240.809 266.02C242.962 264.774 244.77 263.012 246.072 260.892C246.231 260.628 246.489 260.438 246.788 260.363C247.087 260.288 247.403 260.334 247.668 260.492C247.933 260.652 248.123 260.91 248.198 261.21C248.273 261.51 248.226 261.827 248.069 262.093C246.559 264.545 244.464 266.584 241.971 268.027C239.479 269.47 236.667 270.271 233.788 270.359C227.505 270.359 222.147 267.152 219.201 262.642ZM225.112 304.584C224.823 304.478 224.588 304.262 224.458 303.983C224.328 303.704 224.314 303.384 224.419 303.095C226.62 297.109 232.597 292.697 238.95 292.361C245.281 292.05 251.722 295.769 254.543 301.484C254.679 301.762 254.699 302.082 254.598 302.375C254.498 302.667 254.286 302.908 254.008 303.044C253.73 303.179 253.41 303.199 253.117 303.099C252.825 302.998 252.584 302.786 252.449 302.508C250.042 297.621 244.55 294.4 239.081 294.689C233.621 294.973 228.492 298.761 226.602 303.891C226.55 304.034 226.47 304.166 226.367 304.279C226.264 304.391 226.14 304.483 226.001 304.547C225.863 304.611 225.713 304.648 225.561 304.654C225.408 304.661 225.256 304.637 225.112 304.584Z" fill="black"/>
<path d="M262.419 77.0513C263.103 74.6263 264.42 71.8476 266.924 71.5404C268.823 71.3076 270.611 72.7412 271.402 74.4867C272.193 76.2321 272.207 78.2103 272.17 80.1187C271.956 91.6154 271.425 105.384 267.213 116.191C262.763 114.6 261.288 102.2 260.799 97.9735C259.974 90.9605 260.525 83.8539 262.419 77.0513ZM154.252 117.504C152.046 116.294 149.136 115.288 147.168 116.862C145.669 118.053 145.445 120.334 146.13 122.121C146.814 123.909 148.224 125.3 149.621 126.613C157.975 134.512 168.174 143.779 178.837 148.331C180.82 144.04 173 134.307 170.324 130.998C165.896 125.499 160.433 120.915 154.252 117.504ZM89.1859 290.867C87.0774 292.25 84.8199 294.335 85.2761 296.816C85.6252 298.696 87.5289 299.976 89.4279 300.209C91.327 300.442 93.2214 299.86 95.0367 299.255C105.938 295.601 118.914 290.974 127.963 283.718C125.11 279.948 112.84 282.256 108.661 283.052C101.749 284.379 95.0832 287.009 89.1859 290.867ZM91.3317 203.93C88.8135 204.055 85.8114 204.721 84.9549 207.095C84.308 208.896 85.3087 210.958 86.8307 212.122C88.3527 213.281 90.2844 213.732 92.1555 214.123C103.415 216.464 116.955 219.01 128.424 217.302C127.865 212.601 116.103 208.412 112.086 206.997C105.433 204.636 98.3834 203.594 91.3317 203.93Z" fill="#FFC502"/>
<g filter="url(#filter0_i_168_2897)">
<path d="M386.979 219.816L370.423 215.659C356.915 209.427 364.046 200.239 364.698 190.404C365.233 182.337 359.554 176.561 351.511 177.222C347.988 177.515 344.585 178.479 341.164 179.34C333.396 181.295 327.108 177.878 324.585 170.235C323.302 166.348 322.144 162.421 321.113 158.459C319.069 150.603 322.22 144.417 329.826 141.587C332.386 140.637 334.992 139.725 337.655 139.208C347.094 137.365 350.418 124.593 342.705 118.384C340.946 116.969 339.437 115.219 337.864 113.58C332.539 108.027 331.995 100.413 336.645 94.3338C339.828 90.1726 343.613 86.5142 347.574 83.1117C351.958 79.3415 359.056 79.4672 363.706 83.1489C366.466 85.3366 369.012 87.7895 371.768 89.9911C378.782 95.6138 387.444 93.4168 391.159 85.1969C394.868 76.991 393.183 65.7409 407.836 66.616L424.397 70.7725C437.881 76.9956 430.783 86.1278 430.122 96.042C429.531 104.811 436.387 110.778 444.998 108.865C448 108.195 450.909 107.176 453.879 106.408C461.41 104.457 467.852 107.911 470.309 115.284C471.613 119.166 472.767 123.094 473.8 127.06C476.802 138.603 469.499 144.044 457.896 146.381C447.572 148.466 444.481 161.881 452.296 168.22C453.879 169.5 455.229 171.078 456.653 172.549C462.406 178.46 462.95 186.54 457.807 192.968C454.652 196.858 451.163 200.465 447.381 203.748C442.899 207.686 435.735 207.691 430.96 203.981C428.432 202.021 426.291 199.652 424.011 197.427C417.108 190.692 407.673 192.447 403.572 201.198C402.348 203.804 401.818 206.597 401.106 209.343C399.039 217.33 395.055 220.3 386.979 219.816Z" fill="white"/>
</g>
<path d="M386.84 222.143C386.375 222.11 386.738 222.143 369.851 217.917C361.04 213.895 358.41 208.347 360.668 199.205C362.213 193.108 364.023 186.461 359.606 182.114C355.147 177.729 348.175 179.861 341.733 181.602C332.698 183.855 325.293 179.796 322.375 170.961C321.076 167.027 319.906 163.051 318.865 159.041C316.505 149.993 320.303 142.653 329.012 139.404C331.437 138.505 334.272 137.495 337.204 136.923C344.628 135.48 347.491 125.231 341.244 120.199C339.582 118.863 338.135 117.276 336.185 115.186C330.055 108.795 329.496 99.8447 334.793 92.9233C337.683 89.1532 341.263 85.4668 346.057 81.3475C351.205 76.9257 359.588 76.9164 365.15 81.3242C371.638 86.4489 375.567 92.0902 382.064 90.5449C388.292 89.0508 389.898 82.6089 391.467 76.5068C393.803 67.3839 398.816 63.758 407.976 64.2932L424.965 68.5149C433.781 72.5364 436.402 78.0893 434.153 87.2262C432.534 93.6401 430.69 100.464 435.652 104.718C440.605 108.972 446.404 105.951 453.293 104.15C461.988 101.935 469.696 106.091 472.516 114.544C473.801 118.374 474.992 122.391 476.054 126.473C478.744 136.806 474.522 145.427 458.357 148.666C449.886 150.365 447.526 161.354 453.763 166.409C455.262 167.624 456.598 169.095 458.325 170.924C464.92 177.711 465.446 187.155 459.628 194.425C456.389 198.421 452.805 202.125 448.918 205.494C443.63 210.143 435.289 210.283 429.532 205.819C427.307 204.097 425.319 202.04 422.387 199.098C416.708 193.545 409.154 194.783 405.677 202.189C404.662 204.348 404.132 206.792 403.359 209.929C401.153 218.447 396.065 222.706 386.84 222.143ZM387.329 217.512C394.101 217.856 397.075 215.636 398.853 208.761C399.677 205.41 400.259 202.775 401.46 200.211C406.287 189.938 417.648 187.974 425.64 195.766C428.405 198.544 430.402 200.606 432.385 202.142C436.346 205.214 442.262 205.149 445.841 202.003C449.522 198.809 452.918 195.3 455.988 191.516C460.34 186.079 459.944 179.274 454.983 174.168C453.288 172.367 452.027 170.999 450.835 170.026C441.452 162.42 445.231 146.562 457.44 144.1C467.764 142.024 474.169 137.709 471.543 127.646C470.528 123.734 469.379 119.858 468.099 116.024C466.042 109.833 460.829 107.017 454.461 108.66C451.454 109.438 448.652 110.438 445.501 111.137C435.424 113.38 427.102 106.24 427.795 95.8883C428.512 85.1037 435.094 78.2708 423.425 72.8855L407.273 68.8733C395.241 68.1472 397.234 77.4377 393.277 86.1556C388.907 95.8371 378.471 98.3459 370.312 91.8109C367.566 89.6047 364.959 87.1098 362.259 84.9687C358.447 81.9572 352.541 81.92 349.092 84.8756C344.549 88.7855 341.179 92.2391 338.493 95.7486C334.583 100.859 334.998 107.222 339.55 111.97C341.281 113.822 342.692 115.386 344.158 116.573C353.392 124.002 349.52 139.269 338.098 141.494C335.505 142.001 332.885 142.936 330.632 143.77C324.208 146.162 321.625 151.17 323.366 157.873C324.385 161.784 325.528 165.661 326.792 169.5C328.933 175.993 333.95 178.762 340.597 177.082C348.952 175.025 356.618 172.637 362.874 178.804C369.022 184.855 367.016 192.433 365.182 200.322C363.47 207.276 365.043 210.614 371.392 213.546L387.329 217.512Z" fill="black"/>
<g filter="url(#filter1_i_168_2897)">
<path d="M390.554 171.473C373.561 167.182 363.311 149.923 367.607 132.827C371.936 115.619 389.218 105.439 406.589 109.857C423.494 114.157 433.627 131.486 429.275 148.657C424.979 165.604 407.683 175.798 390.554 171.473Z" fill="#33E3AD"/>
</g>
<path d="M381.948 155.695C381.464 155.31 381.153 154.749 381.082 154.135C381.012 153.521 381.189 152.904 381.573 152.42C381.958 151.936 382.519 151.625 383.133 151.555C383.747 151.484 384.364 151.661 384.848 152.045C392.193 157.882 400.403 157.026 399.933 156.956C400.239 156.95 400.543 157.004 400.827 157.115C401.112 157.227 401.372 157.393 401.592 157.605C401.813 157.817 401.989 158.07 402.112 158.35C402.235 158.63 402.301 158.931 402.307 159.237C402.313 159.542 402.259 159.846 402.148 160.131C402.036 160.416 401.87 160.676 401.658 160.896C401.446 161.116 401.193 161.293 400.913 161.416C400.633 161.538 400.332 161.604 400.026 161.611C393.491 161.829 387.088 159.737 381.948 155.695Z" fill="white"/>
<path d="M449.848 229.483L419.272 221.552C418.674 221.397 418.162 221.012 417.848 220.48C417.534 219.948 417.444 219.313 417.599 218.715C417.753 218.117 418.139 217.604 418.671 217.291C419.203 216.977 419.838 216.887 420.436 217.042L451.016 224.973C451.59 225.149 452.073 225.54 452.366 226.064C452.659 226.589 452.738 227.205 452.587 227.786C452.437 228.367 452.068 228.868 451.558 229.184C451.047 229.5 450.435 229.607 449.848 229.483ZM428.572 248.19L417.019 233.039C416.645 232.548 416.48 231.929 416.562 231.317C416.644 230.705 416.966 230.151 417.457 229.776C417.947 229.402 418.567 229.237 419.179 229.319C419.791 229.401 420.345 229.723 420.72 230.214L432.272 245.374C432.646 245.864 432.809 246.483 432.726 247.094C432.643 247.705 432.321 248.258 431.83 248.632C431.339 249.005 430.72 249.169 430.109 249.086C429.498 249.003 428.945 248.68 428.572 248.19ZM413.486 279.803C412.875 279.729 412.318 279.415 411.938 278.931C411.558 278.447 411.385 277.832 411.457 277.22C413.04 264.085 410.135 250.638 403.279 239.337C402.961 238.808 402.865 238.176 403.011 237.577C403.158 236.978 403.535 236.461 404.061 236.139C404.589 235.823 405.221 235.728 405.819 235.873C406.417 236.018 406.934 236.393 407.259 236.916C414.666 249.173 417.769 263.553 416.074 277.774C416 278.386 415.685 278.944 415.2 279.324C414.715 279.705 414.099 279.877 413.486 279.803Z" fill="black"/>
<path d="M388.246 396.12C385.569 392.9 380.286 392.28 376.935 394.803C373.593 397.326 372.732 402.576 375.096 406.035C377.461 409.493 382.665 410.601 386.23 408.404C389.796 406.202 391.145 401.05 389.116 397.391M345.447 412.16C340.648 417.392 340.56 426.147 344.935 431.742C349.306 437.341 357.47 439.436 364.158 437.048C370.228 434.884 375.05 428.865 374.733 422.428C374.114 409.535 353.928 402.911 345.447 412.16Z" fill="#FEBCE2"/>
<path d="M104.281 161.699H104.262C84.3686 161.597 66.6394 146.897 65.8156 127.069L65.7877 127.037C42.8501 106.063 31.5349 73.9608 36.2499 43.2408C36.3585 42.6444 36.6955 42.1139 37.1892 41.7622C37.6829 41.4104 38.2943 41.2652 38.8934 41.3574C39.4926 41.4496 40.0321 41.7719 40.3972 42.2557C40.7624 42.7396 40.9243 43.3468 40.8486 43.9483C36.6269 71.4473 46.5178 101.236 66.1693 120.958C69.0086 102.796 87.7432 94.1662 101.032 100.119C112.901 105.426 117.583 122.55 109.07 132.319C103.922 138.207 94.9112 140.726 86.1234 138.789C81.157 137.677 76.1999 135.266 71.0892 131.444C74.2915 147.177 89.3304 156.975 104.295 157.049C104.886 157.088 105.441 157.351 105.846 157.785C106.25 158.218 106.474 158.79 106.473 159.383C106.471 159.976 106.243 160.546 105.836 160.977C105.429 161.408 104.873 161.663 104.281 161.699ZM70.5074 125.007C76.3721 130.071 81.6922 133.022 87.1334 134.237C94.2735 135.838 101.525 133.874 105.561 129.252C112.063 121.805 108.056 108.353 99.1282 104.36C88.1435 99.4584 70.9402 107.236 70.5074 125.007Z" fill="#FF5F6F"/>
<defs>
<filter id="filter0_i_168_2897" x="320.504" y="66.5679" width="153.972" height="157.298" filterUnits="userSpaceOnUse" color-interpolation-filters="sRGB">
<feFlood flood-opacity="0" result="BackgroundImageFix"/>
<feBlend mode="normal" in="SourceGraphic" in2="BackgroundImageFix" result="shape"/>
<feColorMatrix in="SourceAlpha" type="matrix" values="0 0 0 0 0 0 0 0 0 0 0 0 0 0 0 0 0 0 127 0" result="hardAlpha"/>
<feOffset dy="4"/>
<feGaussianBlur stdDeviation="2"/>
<feComposite in2="hardAlpha" operator="arithmetic" k2="-1" k3="1"/>
<feColorMatrix type="matrix" values="0 0 0 0 0 0 0 0 0 0 0 0 0 0 0 0 0 0 0.25 0"/>
<feBlend mode="normal" in2="shape" result="effect1_innerShadow_168_2897"/>
</filter>
<filter id="filter1_i_168_2897" x="366.629" y="108.826" width="63.6553" height="67.6405" filterUnits="userSpaceOnUse" color-interpolation-filters="sRGB">
<feFlood flood-opacity="0" result="BackgroundImageFix"/>
<feBlend mode="normal" in="SourceGraphic" in2="BackgroundImageFix" result="shape"/>
<feColorMatrix in="SourceAlpha" type="matrix" values="0 0 0 0 0 0 0 0 0 0 0 0 0 0 0 0 0 0 127 0" result="hardAlpha"/>
<feOffset dy="4"/>
<feGaussianBlur stdDeviation="2"/>
<feComposite in2="hardAlpha" operator="arithmetic" k2="-1" k3="1"/>
<feColorMatrix type="matrix" values="0 0 0 0 0 0 0 0 0 0 0 0 0 0 0 0 0 0 0.25 0"/>
<feBlend mode="normal" in2="shape" result="effect1_innerShadow_168_2897"/>
</filter>
</defs>
</svg>
