<svg width="512" height="512" viewBox="0 0 512 512" fill="none" xmlns="http://www.w3.org/2000/svg">
<g clip-path="url(#clip0_165_2900)">
<path d="M256 110.603V462.013H204.595C193.39 462.013 184.306 452.929 184.306 441.724V410.978C184.306 404.408 183.011 397.901 180.497 391.831C177.982 385.76 174.297 380.244 169.65 375.598L150.494 356.442C135.424 341.372 131.553 318.408 140.854 299.23L234.696 105.71C239.892 94.9972 256 98.6966 256 110.603Z" fill="url(#paint0_linear_165_2900)"/>
<path d="M256 110.603V462.013H307.405C318.611 462.013 327.694 452.929 327.694 441.723V410.978C327.694 404.408 328.988 397.901 331.503 391.831C334.017 385.76 337.703 380.244 342.349 375.598L361.505 356.442C376.576 341.371 380.446 318.408 371.146 299.23L277.303 105.711C272.108 94.9971 256 98.6965 256 110.603Z" fill="url(#paint1_linear_165_2900)"/>
<path d="M264.25 284.417V107.907C264.25 103.512 260.934 99.6754 256.549 99.3913C255.422 99.3162 254.291 99.4734 253.227 99.8532C252.163 100.233 251.189 100.827 250.364 101.599C249.539 102.371 248.881 103.304 248.431 104.34C247.982 105.376 247.75 106.494 247.749 107.623V284.005C247.749 295.555 242.909 306.716 234.056 314.133C225.867 320.993 220.941 331.617 221.941 343.345C223.358 359.965 236.93 373.296 253.571 374.446C273.55 375.826 290.186 360.027 290.186 340.343C290.186 330.034 285.622 320.793 278.406 314.527C269.614 306.894 264.25 296.062 264.25 284.417Z" fill="#813FBB"/>
<path d="M178.311 387.24C182.244 394.534 184.305 402.692 184.306 410.979V441.725C184.306 452.93 193.389 462.014 204.595 462.014H307.405C318.61 462.014 327.694 452.93 327.694 441.725V410.979C327.694 402.616 329.792 394.471 333.689 387.24H178.311Z" fill="url(#paint2_linear_165_2900)"/>
<path d="M455.188 65.7137H56.8119C51.7381 65.7137 47.624 61.6006 47.624 56.5258C47.624 51.451 51.7371 47.3379 56.8119 47.3379H455.188C457.625 47.3379 459.962 48.3059 461.685 50.029C463.408 51.752 464.376 54.089 464.376 56.5258C464.376 58.9626 463.408 61.2995 461.685 63.0226C459.962 64.7457 457.625 65.7137 455.188 65.7137Z" fill="url(#paint3_linear_165_2900)"/>
<path d="M480.168 289.881C477.731 289.881 475.394 288.913 473.671 287.19C471.948 285.467 470.98 283.13 470.98 280.693C470.98 162.153 374.54 65.7137 256 65.7137C137.46 65.7137 41.0203 162.153 41.0203 280.693C41.0203 285.767 36.9072 289.881 31.8324 289.881C26.7576 289.881 22.6445 285.768 22.6445 280.693C22.6445 152.021 127.327 47.3379 256 47.3379C384.673 47.3379 489.356 152.021 489.356 280.693C489.355 283.13 488.387 285.467 486.664 287.19C484.941 288.913 482.604 289.881 480.168 289.881Z" fill="url(#paint4_linear_165_2900)"/>
<path d="M269.927 88.3582H242.073C232.184 88.3582 224.167 80.3419 224.167 70.4522V42.5994C224.167 32.7108 232.183 24.6935 242.073 24.6935H269.927C279.815 24.6935 287.833 32.7098 287.833 42.5994V70.4532C287.833 80.3419 279.816 88.3582 269.927 88.3582Z" fill="url(#paint5_linear_165_2900)"/>
<path d="M248.07 38.399H263.931C269.562 38.399 274.127 42.9639 274.127 48.5949V64.4558C274.127 70.0868 269.562 74.6517 263.931 74.6517H248.07C242.439 74.6517 237.874 70.0868 237.874 64.4558V48.5959C237.873 42.9639 242.438 38.399 248.07 38.399Z" fill="#813FBB"/>
<path d="M45.7587 312.526H17.9059C8.01631 312.526 0 304.509 0 294.62V266.766C0 256.877 8.01631 248.86 17.9059 248.86H45.7587C55.6474 248.86 63.6647 256.876 63.6647 266.766V294.62C63.6647 304.509 55.6484 312.526 45.7587 312.526Z" fill="url(#paint6_linear_165_2900)"/>
<path d="M23.9019 262.567H39.7628C45.3938 262.567 49.9587 267.131 49.9587 272.762V288.623C49.9587 294.254 45.3938 298.819 39.7628 298.819H23.9019C18.2709 298.819 13.7061 294.254 13.7061 288.623V272.762C13.7051 267.131 18.2699 262.567 23.9019 262.567Z" fill="#813FBB"/>
<path d="M494.094 312.526H466.241C456.352 312.526 448.335 304.509 448.335 294.62V266.766C448.335 256.877 456.351 248.86 466.241 248.86H494.095C503.983 248.86 512.001 256.876 512.001 266.766V294.62C512 304.509 503.983 312.526 494.094 312.526Z" fill="url(#paint7_linear_165_2900)"/>
<path d="M472.237 262.567H488.098C493.729 262.567 498.294 267.131 498.294 272.762V288.623C498.294 294.254 493.729 298.819 488.098 298.819H472.237C466.606 298.819 462.041 294.254 462.041 288.623V272.762C462.041 267.131 466.606 262.567 472.237 262.567Z" fill="#813FBB"/>
<path d="M49.9591 79.2144C62.4897 79.2144 72.6478 69.0564 72.6478 56.5258C72.6478 43.9952 62.4897 33.8372 49.9591 33.8372C37.4286 33.8372 27.2705 43.9952 27.2705 56.5258C27.2705 69.0564 37.4286 79.2144 49.9591 79.2144Z" fill="#813FBB"/>
<path d="M462.041 79.2144C474.572 79.2144 484.73 69.0564 484.73 56.5258C484.73 43.9952 474.572 33.8372 462.041 33.8372C449.511 33.8372 439.353 43.9952 439.353 56.5258C439.353 69.0564 449.511 79.2144 462.041 79.2144Z" fill="#813FBB"/>
<path d="M328.326 487.307H183.675C175.66 487.307 169.161 480.808 169.161 472.793V447.695C169.161 439.68 175.66 433.181 183.675 433.181H328.326C336.341 433.181 342.84 439.68 342.84 447.695V472.793C342.84 480.808 336.341 487.307 328.326 487.307Z" fill="#813FBB"/>
</g>
<defs>
<linearGradient id="paint0_linear_165_2900" x1="211.947" y1="277.737" x2="242.164" y2="285.087" gradientUnits="userSpaceOnUse">
<stop stop-color="#EDF5FF"/>
<stop offset="1" stop-color="#C7E9FF"/>
</linearGradient>
<linearGradient id="paint1_linear_165_2900" x1="277.128" y1="284.844" x2="320.412" y2="297.094" gradientUnits="userSpaceOnUse">
<stop stop-color="#EDF5FF"/>
<stop offset="1" stop-color="#C7E9FF"/>
</linearGradient>
<linearGradient id="paint2_linear_165_2900" x1="256" y1="406.993" x2="256" y2="436.107" gradientUnits="userSpaceOnUse">
<stop stop-color="#7ACBFF" stop-opacity="0"/>
<stop offset="1" stop-color="#2F73A0"/>
</linearGradient>
<linearGradient id="paint3_linear_165_2900" x1="47.624" y1="56.5258" x2="464.376" y2="56.5258" gradientUnits="userSpaceOnUse">
<stop stop-color="#605DEC"/>
<stop offset="1" stop-color="#BA68C8"/>
</linearGradient>
<linearGradient id="paint4_linear_165_2900" x1="22.6445" y1="168.61" x2="489.356" y2="168.61" gradientUnits="userSpaceOnUse">
<stop stop-color="#605DEC"/>
<stop offset="1" stop-color="#BA68C8"/>
</linearGradient>
<linearGradient id="paint5_linear_165_2900" x1="238.738" y1="39.2634" x2="281.222" y2="81.7474" gradientUnits="userSpaceOnUse">
<stop stop-color="#7ACBFF"/>
<stop offset="1" stop-color="#45A2E0"/>
</linearGradient>
<linearGradient id="paint6_linear_165_2900" x1="14.5699" y1="263.431" x2="57.0539" y2="305.915" gradientUnits="userSpaceOnUse">
<stop stop-color="#7ACBFF"/>
<stop offset="1" stop-color="#45A2E0"/>
</linearGradient>
<linearGradient id="paint7_linear_165_2900" x1="462.905" y1="263.431" x2="505.389" y2="305.915" gradientUnits="userSpaceOnUse">
<stop stop-color="#7ACBFF"/>
<stop offset="1" stop-color="#45A2E0"/>
</linearGradient>
<clipPath id="clip0_165_2900">
<rect width="512" height="512" fill="white"/>
</clipPath>
</defs>
</svg>
