<svg width="512" height="450" viewBox="0 0 512 450" fill="none" xmlns="http://www.w3.org/2000/svg">
<path d="M361 45V75C361 83.399 354.401 90 346 90H331V45C331 36.599 324.401 30 316 30H196C187.599 30 181 36.599 181 45V90H166C157.599 90 151 83.399 151 75V45C151 20.099 171.099 0 196 0H316C340.901 0 361 20.099 361 45Z" fill="#5A5A5A"/>
<path d="M316 30H256V0H316C340.901 0 361 20.099 361 45V75C361 83.399 354.401 90 346 90H331V45C331 36.599 324.401 30 316 30Z" fill="#444444"/>
<path d="M512 75V405C512 429.899 491.901 450 467 450H45C20.099 450 0 429.899 0 405V75C0 70.8 1.8 67.2 4.501 64.499L81 236.7H431L507.5 64.498C510.2 67.2 512 70.8 512 75Z" fill="#5A5A5A"/>
<path d="M512 75V405C512 429.899 491.901 450 467 450H256V236.7H431L507.5 64.498C510.2 67.2 512 70.8 512 75Z" fill="#444444"/>
<path d="M507.499 64.499L461 236.7C455.6 256.499 437.901 270 417.5 270H94.501C74.099 270 56.4 256.5 51 236.7L4.50098 64.499C7.19998 61.8 10.8 60 15 60H497C501.2 60 504.8 61.8 507.499 64.499Z" fill="#6E6E6E"/>
<path d="M507.499 64.499L461 236.7C455.6 256.499 437.901 270 417.5 270H256V60H497C501.2 60 504.8 61.8 507.499 64.499Z" fill="#5A5A5A"/>
<path d="M316 225H196C187.599 225 181 231.599 181 240V300C181 308.399 187.599 315 196 315H316C324.401 315 331 308.399 331 300V240C331 231.599 324.401 225 316 225Z" fill="#FFD400"/>
<path d="M331 240V300C331 308.399 324.401 315 316 315H256V225H316C324.401 225 331 231.599 331 240Z" fill="#FDBF00"/>
</svg>
